<?xml version="1.0" encoding="utf-8"?>
<!DOCTYPE svg PUBLIC "-//W3C//DTD SVG 20010904//EN" "http://www.w3.org/TR/2001/REC-SVG-20010904/DTD/svg10.dtd">
<svg version="1.0" xmlns="http://www.w3.org/2000/svg" width="130px" height="32px" viewBox="0 0 130 32" preserveAspectRatio="xMidYMid meet">
 <g fill="#000000">
  <path d="M32.54 29.38 l-1.01 -0.28 -0.55 -0.30 -0.54 -0.31 -0.82 -0.79 -0.82 -0.79 -0.47 -0.99 c-0.61 -1.26 -0.75 -1.72 -1.01 -3.21 l-0.21 -1.19 0 -9.17 0 -9.17 0.33 -0.30 0.33 -0.31 4.13 0 4.12 0 0.27 0.30 0.27 0.30 0.07 9.98 0.07 9.99 0.43 0.44 0.41 0.44 1.63 -0.04 1.62 -0.04 0.28 -0.40 0.30 -0.38 0.10 -0.82 0.10 -0.81 0.01 -9.17 0.01 -9.17 0.33 -0.30 0.33 -0.31 4.13 0 4.12 0 0.24 0.27 0.24 0.26 -0.04 9.85 -0.04 9.85 -0.33 1.14 c-0.17 0.62 -0.51 1.53 -0.74 2.03 l-0.41 0.88 -0.78 0.79 -0.79 0.78 -0.88 0.41 c-0.50 0.23 -1.28 0.51 -1.75 0.64 l-0.84 0.21 -5.41 -0.01 -5.39 0 -1.02 -0.27z"/>
  <path d="M86.22 29.58 c-0.23 -0.04 -0.91 -0.17 -1.49 -0.30 l-1.06 -0.24 -0.92 -0.48 -0.92 -0.48 -0.72 -0.61 -0.72 -0.62 -0.58 -0.97 -0.57 -0.97 -0.31 -0.99 c-0.17 -0.54 -0.40 -1.50 -0.51 -2.13 l-0.20 -1.14 0 -4.60 0 -4.60 0.16 -0.94 c0.09 -0.51 0.31 -1.48 0.51 -2.14 l0.35 -1.21 0.48 -0.81 0.48 -0.79 0.87 -0.79 0.87 -0.79 0.54 -0.28 c0.92 -0.47 2.02 -0.84 2.98 -0.98 l0.92 -0.16 7.04 0 7.04 0 0.23 0.26 0.24 0.27 0 2.27 0 2.27 -0.33 0.30 -0.33 0.31 -4.98 0 -4.97 0 -0.77 0.14 -0.77 0.14 -0.37 0.41 -0.38 0.41 -0.17 0.99 -0.16 0.99 0.04 5.01 0.06 5.02 0.28 0.84 0.27 0.84 0.54 0.44 0.55 0.44 1.43 0 1.45 0 0.04 -5.02 0.03 -5.04 0.31 -0.33 0.30 -0.33 4.16 0 4.16 0 0.30 0.40 0.31 0.38 -0.07 5.25 -0.06 5.25 -0.24 0.84 c-0.34 1.19 -0.61 1.70 -1.32 2.50 l-0.61 0.68 -0.65 0.33 c-0.37 0.17 -1.05 0.41 -1.53 0.53 l-0.87 0.20 -4.97 0.04 c-2.72 0.03 -5.15 0.01 -5.39 -0.01z"/>
  <path d="M2.13 29.43 c-0.11 -0.06 -0.33 -0.18 -0.45 -0.31 l-0.26 -0.21 0 -12.89 0 -12.89 0.38 -0.30 0.40 -0.30 8.02 0.06 8.02 0.06 0.99 0.24 0.99 0.24 0.87 0.40 0.87 0.41 0.79 0.79 0.78 0.79 0.31 0.67 c0.18 0.38 0.41 1.04 0.51 1.46 l0.18 0.78 0.01 1.60 0 1.60 -0.23 1.08 -0.23 1.09 -0.35 0.65 c-0.20 0.35 -0.44 0.74 -0.55 0.87 -0.28 0.33 -0.26 0.44 0.28 0.97 l0.48 0.47 0.38 0.84 0.37 0.84 0.20 0.95 0.21 0.97 0 1.21 0 1.21 -0.21 0.99 -0.21 0.99 -0.50 1.02 -0.51 1.02 -0.78 0.70 -0.78 0.70 -0.74 0.37 -0.74 0.35 -1.06 0.24 -1.06 0.24 -8.09 0.06 -8.09 0.06 -0.21 -0.09z m12.08 -5.75 c0.27 -0.10 0.62 -0.30 0.79 -0.44 l0.30 -0.28 0.23 -0.68 0.23 -0.70 0 -0.48 0 -0.48 -0.21 -0.62 -0.23 -0.61 -0.30 -0.33 -0.30 -0.31 -0.74 -0.16 -0.74 -0.16 -1.19 0.04 -1.19 0.04 -0.04 2.48 c-0.01 1.36 0 2.55 0.03 2.65 l0.07 0.18 1.41 0 1.41 0 0.48 -0.16z m0.13 -10.81 l0.50 -0.17 0.20 -0.78 0.20 -0.78 -0.10 -0.97 -0.11 -0.98 -0.40 -0.44 -0.40 -0.45 -1.69 0 -1.67 0 -0.04 2.20 c-0.01 1.21 0 2.27 0.03 2.37 l0.07 0.18 1.46 -0.01 1.46 0 0.50 -0.17z"/>
  <path d="M54.30 29.08 l-0.37 -0.44 0.03 -12.74 0.04 -12.74 0.27 -0.30 0.27 -0.30 8.15 0 8.15 0 1.02 0.23 1.02 0.23 0.78 0.38 0.77 0.37 0.72 0.71 0.71 0.71 0.45 0.85 0.44 0.85 0.26 1.19 0.24 1.21 -0.07 1.63 -0.07 1.65 -0.40 0.98 c-0.21 0.54 -0.51 1.19 -0.67 1.45 l-0.27 0.45 -0.98 0.87 -0.98 0.88 0.21 0.58 c0.11 0.33 0.40 0.89 0.62 1.25 0.23 0.35 0.51 0.92 0.64 1.26 0.11 0.33 0.33 0.77 0.47 0.98 0.16 0.21 0.98 1.82 1.86 3.56 l1.58 3.16 0 0.45 0 0.47 -0.33 0.30 -0.33 0.31 -4.41 0 -4.41 0 -0.24 -0.09 -0.23 -0.10 -0.43 -0.82 c-0.23 -0.47 -0.54 -1.16 -0.70 -1.55 -0.16 -0.40 -0.57 -1.29 -0.92 -2 -0.35 -0.71 -0.64 -1.33 -0.64 -1.39 0 -0.07 -0.37 -0.91 -0.84 -1.87 -0.45 -0.97 -1.01 -2.24 -1.22 -2.82 l-0.38 -1.06 -0.07 -1.02 -0.09 -1.04 0.24 -0.64 0.26 -0.64 0.58 -0.48 c0.33 -0.26 0.91 -0.62 1.29 -0.81 l0.70 -0.35 0.28 -0.37 0.27 -0.37 0.07 -0.89 0.07 -0.91 -0.16 -0.57 -0.16 -0.58 -0.43 -0.41 -0.44 -0.43 -1.52 0 -1.52 0 -0.07 10.33 -0.07 10.35 -0.34 0.27 -0.33 0.27 -4.02 0 -4.02 0 -0.37 -0.44z"/>
  <path d="M104.95 29.07 l-0.38 -0.45 0.07 -9.37 0.06 -9.38 0.31 -1.35 0.30 -1.33 0.28 -0.58 c0.16 -0.33 0.28 -0.65 0.28 -0.74 0 -0.07 0.40 -0.57 0.88 -1.11 l0.88 -0.95 0.50 -0.31 c0.28 -0.18 0.89 -0.48 1.36 -0.67 l0.85 -0.33 5.65 -0.06 5.65 -0.04 0.91 0.14 0.91 0.13 0.61 0.31 c1.67 0.82 2.14 1.22 2.95 2.43 l0.51 0.79 0.37 1.12 0.35 1.12 0.17 1.04 0.16 1.02 0 9.20 0 9.21 -0.33 0.30 -0.33 0.31 -4.06 0 -4.06 0 -0.33 -0.27 -0.34 -0.27 -0.07 -5.02 -0.07 -5.01 -2.41 0 -2.41 0 -0.07 4.90 -0.07 4.91 -0.26 0.38 -0.24 0.38 -4.10 0 -4.10 0 -0.38 -0.45z m14.09 -17.71 l0.04 -1.65 -0.11 -0.55 -0.13 -0.57 -0.48 -0.26 -0.50 -0.26 -1.45 0.04 -1.46 0.04 -0.38 0.40 -0.40 0.38 -0.06 1.84 -0.04 1.84 0.09 0.21 0.09 0.21 2.37 -0.03 2.38 -0.04 0.04 -1.63z"/>
 </g>
</svg>